<svg width="18" height="17" viewBox="0 0 18 17" fill="none" xmlns="http://www.w3.org/2000/svg">
<path d="M14.6355 16V2.66667C14.6355 2.22464 14.4599 1.80072 14.1473 1.48816C13.8347 1.17559 13.4108 1 12.9688 1H4.63546C4.19343 1 3.76951 1.17559 3.45695 1.48816C3.14439 1.80072 2.96879 2.22464 2.96879 2.66667V16M14.6355 16H16.3021M14.6355 16H10.4688M2.96879 16H1.30212M2.96879 16H7.13546M10.4688 16V11.8333C10.4688 11.6123 10.381 11.4004 10.2247 11.2441C10.0684 11.0878 9.85647 11 9.63546 11H7.96879C7.74778 11 7.53582 11.0878 7.37954 11.2441C7.22325 11.4004 7.13546 11.6123 7.13546 11.8333V16M10.4688 16H7.13546M6.30212 4.33333H7.13546M6.30212 7.66667H7.13546M10.4688 4.33333H11.3021M10.4688 7.66667H11.3021" stroke="#ECECEC" stroke-width="2" stroke-linecap="round" stroke-linejoin="round"/>
</svg>
