<svg width="29" height="22" viewBox="0 0 29 22" fill="none" xmlns="http://www.w3.org/2000/svg">
<path d="M22.2941 0H7.16102C5.46355 0.00158817 3.83613 0.581561 2.63583 1.61267C1.43553 2.64377 0.760394 4.0418 0.758545 5.5L0.758545 16.5C0.760394 17.9582 1.43553 19.3562 2.63583 20.3873C3.83613 21.4184 5.46355 21.9984 7.16102 22H22.2941C23.9916 21.9984 25.619 21.4184 26.8193 20.3873C28.0196 19.3562 28.6948 17.9582 28.6966 16.5V5.5C28.6948 4.0418 28.0196 2.64377 26.8193 1.61267C25.619 0.581561 23.9916 0.00158817 22.2941 0ZM22.2941 3C23.0001 3.00202 23.6807 3.22655 24.2067 3.631L16.6402 10.131C16.1263 10.5527 15.4429 10.788 14.7322 10.788C14.0216 10.788 13.3382 10.5527 12.8243 10.131L5.25774 3.631C5.7814 3.22837 6.45826 3.00397 7.16102 3H22.2941ZM22.2941 19H7.16102C6.38918 19 5.64896 18.7366 5.10319 18.2678C4.55742 17.7989 4.2508 17.163 4.2508 16.5V7.017L10.3495 12.256C10.9242 12.75 11.6067 13.1418 12.3578 13.4092C13.1089 13.6765 13.914 13.8141 14.727 13.8141C15.54 13.8141 16.3451 13.6765 17.0962 13.4092C17.8473 13.1418 18.5298 12.75 19.1046 12.256L25.2044 7.017V16.5C25.2044 17.163 24.8978 17.7989 24.352 18.2678C23.8062 18.7366 23.066 19 22.2941 19Z" fill="#441342"/>
</svg>
