<svg width="23" height="17" viewBox="0 0 23 17" fill="none" xmlns="http://www.w3.org/2000/svg">
<path d="M16.4991 16H21.4991V14.125C21.4991 13.5405 21.3048 12.9705 20.9433 12.4943C20.5818 12.0181 20.071 11.6594 19.4819 11.4679C18.8928 11.2764 18.2548 11.2618 17.6564 11.426C17.058 11.5901 16.5291 11.925 16.1431 12.3841M16.4991 16H6.49915M16.4991 16V14.125C16.4991 13.51 16.3731 12.9222 16.1431 12.3841M16.1431 12.3841C15.7718 11.514 15.1309 10.7682 14.3031 10.2429C13.4754 9.71761 12.4987 9.43684 11.4991 9.43684C10.4996 9.43684 9.52291 9.71761 8.69515 10.2429C7.86739 10.7682 7.2265 11.514 6.85515 12.3841M6.49915 16H1.49915V14.125C1.49919 13.5405 1.69348 12.9705 2.05501 12.4943C2.41653 12.0181 2.92733 11.6594 3.5164 11.4679C4.10546 11.2764 4.74352 11.2618 5.34188 11.426C5.94024 11.5901 6.46917 11.925 6.85515 12.3841M6.49915 16V14.125C6.49915 13.51 6.62515 12.9222 6.85515 12.3841M14.4991 3.8125C14.4991 4.55842 14.1831 5.27379 13.6205 5.80124C13.0579 6.32868 12.2948 6.625 11.4991 6.625C10.7035 6.625 9.94043 6.32868 9.37782 5.80124C8.81522 5.27379 8.49915 4.55842 8.49915 3.8125C8.49915 3.06658 8.81522 2.35121 9.37782 1.82376C9.94043 1.29632 10.7035 1 11.4991 1C12.2948 1 13.0579 1.29632 13.6205 1.82376C14.1831 2.35121 14.4991 3.06658 14.4991 3.8125ZM20.4991 6.625C20.4991 7.12228 20.2884 7.59919 19.9134 7.95082C19.5383 8.30246 19.0296 8.5 18.4991 8.5C17.9687 8.5 17.46 8.30246 17.0849 7.95082C16.7099 7.59919 16.4991 7.12228 16.4991 6.625C16.4991 6.12772 16.7099 5.65081 17.0849 5.29918C17.46 4.94754 17.9687 4.75 18.4991 4.75C19.0296 4.75 19.5383 4.94754 19.9134 5.29918C20.2884 5.65081 20.4991 6.12772 20.4991 6.625ZM6.49915 6.625C6.49915 7.12228 6.28843 7.59919 5.91336 7.95082C5.53829 8.30246 5.02958 8.5 4.49915 8.5C3.96871 8.5 3.46 8.30246 3.08493 7.95082C2.70986 7.59919 2.49915 7.12228 2.49915 6.625C2.49915 6.12772 2.70986 5.65081 3.08493 5.29918C3.46 4.94754 3.96871 4.75 4.49915 4.75C5.02958 4.75 5.53829 4.94754 5.91336 5.29918C6.28843 5.65081 6.49915 6.12772 6.49915 6.625Z" stroke="#ECECEC" stroke-width="2" stroke-linecap="round" stroke-linejoin="round"/>
</svg>
