<svg width="21" height="15" viewBox="0 0 21 15" fill="none" xmlns="http://www.w3.org/2000/svg">
<path d="M9.28952 3.21429C9.28952 4.06677 8.93834 4.88433 8.31321 5.48713C7.68809 6.08992 6.84025 6.42857 5.95619 6.42857C5.07214 6.42857 4.22429 6.08992 3.59917 5.48713C2.97405 4.88433 2.62286 4.06677 2.62286 3.21429C2.62286 2.3618 2.97405 1.54424 3.59917 0.941443C4.22429 0.338647 5.07214 0 5.95619 0C6.84025 0 7.68809 0.338647 8.31321 0.941443C8.93834 1.54424 9.28952 2.3618 9.28952 3.21429ZM18.1784 3.21429C18.1784 3.63639 18.0922 4.05436 17.9247 4.44434C17.7572 4.83431 17.5116 5.18865 17.2021 5.48713C16.8926 5.7856 16.5251 6.02237 16.1207 6.1839C15.7163 6.34543 15.2828 6.42857 14.8451 6.42857C14.4073 6.42857 13.9739 6.34543 13.5695 6.1839C13.165 6.02237 12.7976 5.7856 12.4881 5.48713C12.1785 5.18865 11.933 4.83431 11.7655 4.44434C11.598 4.05436 11.5117 3.63639 11.5117 3.21429C11.5117 2.3618 11.8629 1.54424 12.4881 0.941443C13.1132 0.338647 13.961 0 14.8451 0C15.7291 0 16.577 0.338647 17.2021 0.941443C17.8272 1.54424 18.1784 2.3618 18.1784 3.21429ZM13.6562 15C13.7073 14.6496 13.734 14.2929 13.734 13.9286C13.7365 12.2452 13.1492 10.6104 12.0673 9.28929C12.9118 8.8191 13.8699 8.57157 14.845 8.57156C15.8202 8.57156 16.7782 8.81908 17.6228 9.28925C18.4673 9.75942 19.1687 10.4357 19.6563 11.25C20.1439 12.0644 20.4006 12.9882 20.4006 13.9286V15H13.6562ZM5.95619 8.57143C7.42962 8.57143 8.84269 9.13584 9.88456 10.1405C10.9264 11.1452 11.5117 12.5078 11.5117 13.9286V15H0.400635V13.9286C0.400635 12.5078 0.985951 11.1452 2.02782 10.1405C3.06969 9.13584 4.48277 8.57143 5.95619 8.57143Z" fill="white"/>
</svg>
